<?xml version="1.0" encoding="UTF-8" standalone="no"?>
<!-- Created with Inkscape (http://www.inkscape.org/) -->

<svg
   xmlns:dc="http://purl.org/dc/elements/1.1/"
   xmlns:cc="http://creativecommons.org/ns#"
   xmlns:rdf="http://www.w3.org/1999/02/22-rdf-syntax-ns#"
   xmlns:svg="http://www.w3.org/2000/svg"
   xmlns="http://www.w3.org/2000/svg"
   xmlns:sodipodi="http://sodipodi.sourceforge.net/DTD/sodipodi-0.dtd"
   xmlns:inkscape="http://www.inkscape.org/namespaces/inkscape"
   width="3000"
   height="447"
   id="svg3017"
   version="1.1"
   inkscape:version="0.48.3.1 r9886"
   sodipodi:docname="dibujo.svg">
  <defs
     id="defs3019" />
  <sodipodi:namedview
     id="base"
     pagecolor="#ffffff"
     bordercolor="#666666"
     borderopacity="1.0"
     inkscape:pageopacity="0.0"
     inkscape:pageshadow="2"
     inkscape:zoom="0.35"
     inkscape:cx="1090"
     inkscape:cy="18.228767"
     inkscape:document-units="px"
     inkscape:current-layer="layer1"
     showgrid="false"
     width="4000px"
     showguides="true"
     inkscape:guide-bbox="true"
     inkscape:window-width="1354"
     inkscape:window-height="673"
     inkscape:window-x="0"
     inkscape:window-y="24"
     inkscape:window-maximized="1">
    <sodipodi:guide
       orientation="1,0"
       position="-2.8571429,362.85714"
       id="guide3025" />
    <sodipodi:guide
       orientation="0,1"
       position="-2.8571429,497.14286"
       id="guide3027" />
    <sodipodi:guide
       orientation="0,1"
       position="351.42857,-5.7142857"
       id="guide3029" />
    <sodipodi:guide
       orientation="1,0"
       position="3008.5714,734.28571"
       id="guide3031" />
  </sodipodi:namedview>
  <metadata
     id="metadata3022">
    <rdf:RDF>
      <cc:Work
         rdf:about="">
        <dc:format>image/svg+xml</dc:format>
        <dc:type
           rdf:resource="http://purl.org/dc/dcmitype/StillImage" />
      </cc:Work>
    </rdf:RDF>
  </metadata>
  <g
     inkscape:label="Capa 1"
     inkscape:groupmode="layer"
     id="layer1"
     transform="translate(0,-605.36218)">
    <path
       style="fill:#800080;fill-opacity:1"
       id="path3033"
       d="m 209.20057,162.34509 c -9.09453,9.1166 -18.40592,18.09574 -28.22552,26.4418 -15.43869,12.50849 -32.87952,20.78247 -50.51406,30.60532 -3.90522,2.1753 -8.30389,3.0592 -12.64612,3.74188 -6.04174,0.26275 -12.34174,1.56035 -18.369117,0.34826 -4.189192,-0.84243 -5.821641,-1.99638 -9.65708,-3.91659 -9.707591,-4.95315 -17.009809,-12.78278 -24.217156,-20.73149 -4.949809,-5.08808 -9.348408,-10.61006 -13.659982,-16.23277 -4.126556,-6.30026 -4.398047,-13.7052 -4.762029,-20.994 -1.007005,-9.53401 1.39511,-14.4909 8.453461,-20.70692 22.085886,-14.94284 41.885439,-26.92048 67.299553,-31.55023 12.34359,-2.69476 24.94839,-3.63685 37.5464,-4.00798 12.58434,-0.40959 25.17774,-0.49973 37.76808,-0.53496 11.76431,0.0231 23.53526,-0.16738 35.28001,0.5623 16.23964,3.44896 32.72049,5.23501 49.15058,7.42979 16.37786,2.32903 32.72527,4.51359 49.23981,5.59126 22.34869,0.66539 44.67802,1.62327 67.01801,2.559 21.63608,1.54251 43.28157,2.87327 64.96116,3.59689 7.38354,0.0152 15.01348,0.5075 22.36229,-0.5889 5.57434,-0.83166 10.79481,-3.19858 15.85119,-5.5359 -63.43871,32.57477 -32.90804,21.43522 -23.28933,11.91427 4.03933,-3.99827 5.91733,-8.71812 7.84589,-13.92687 2.42415,-9.11693 3.57141,-18.677507 3.04648,-28.109023 -1.28183,-7.775032 -7.4186,-13.760494 -12.56072,-19.381846 -4.10284,-3.297814 -8.19897,-6.600303 -12.40143,-9.770952 0,0 35.97435,-22.577367 35.97435,-22.577367 l 0,0 c 4.10734,3.539298 8.29447,6.983917 12.36861,10.56144 5.74171,6.37216 12.18576,13.162446 14.02051,21.768937 0.87089,9.941332 -0.84173,20.013328 -2.67924,29.759542 -2.70307,9.189309 -5.99534,17.364299 -14.64656,22.418599 -13.43201,7.84739 -26.9883,15.48012 -40.48245,23.22017 -4.3284,1.62421 -6.15197,2.49813 -10.74762,3.43463 -9.17171,1.86901 -18.70503,1.02278 -27.97247,0.81935 -21.50669,-0.93972 -42.95909,-2.68427 -64.44517,-3.98207 -22.54617,-0.9135 -45.09336,-1.54494 -67.64454,-2.2346 -16.60075,-1.11812 -33.01698,-3.47622 -49.49334,-5.73736 -16.41916,-2.12728 -32.77719,-4.56122 -49.14458,-7.01906 -11.80806,-0.42526 -23.61988,-0.0699 -35.43384,-0.19529 -12.44961,-0.0181 -24.903,-0.0562 -37.34527,0.45168 -12.57869,0.74545 -25.14076,1.87955 -37.44858,4.72559 -4.907319,1.06592 -6.003181,1.18089 -10.848867,2.74334 -15.169606,4.89133 -44.642486,22.56574 15.868238,-11.85662 -7.607371,4.44829 -10.684987,7.82507 -10.120776,16.89794 0.306223,6.39911 0.282099,13.07036 3.781658,18.68372 4.077817,5.61944 8.540512,10.89275 13.146927,16.08594 6.80811,7.59702 13.74197,14.99572 23.21384,19.30428 9.32754,3.64779 16.91287,3.08401 26.64014,1.29462 3.78144,-1.05353 4.08745,-0.99495 7.63436,-2.5346 1.39256,-0.60448 5.41605,-2.73262 4.11746,-1.94631 -57.82279,35.01203 -32.42179,19.861 -20.57649,11.09287 9.77561,-7.93575 18.64873,-16.77489 27.7817,-25.42787 0,0 38.96163,-16.55384 38.96163,-16.55384 z"
       inkscape:connector-curvature="0"
       transform="translate(0,552.36218)" />
    <path
       style="fill:#800080;fill-opacity:1"
       id="path3035"
       d="m 276.65919,650.96851 c 6.0891,21.0064 13.49438,41.70202 22.74334,61.5272 1.86904,3.69516 3.64484,7.43898 5.60713,11.08547 9.61374,17.86507 2.58234,3.0136 12.68256,22.98763 7.36714,14.56916 14.27719,29.40773 21.04863,44.25983 12.17166,27.65533 25.0985,54.9262 34.6771,83.61916 4.64093,14.38053 7.50135,29.12754 8.09678,44.20728 0.24466,12.38913 0.0309,24.78148 0.11364,37.1721 -0.0218,5.96551 0.82595,14.19567 -5.29369,17.78488 -13.17094,7.72486 -26.62274,14.96055 -39.9341,22.44082 -11.81327,2.46684 -23.97317,2.62038 -35.99716,2.89618 -13.90406,1.15644 -27.20385,-1.62558 -40.54984,-5.12986 -10.95373,-4.37736 -21.97153,-8.51632 -33.32441,-11.73206 -10.54267,-2.94797 -20.88823,-6.42863 -31.1604,-10.22108 -11.2865,-4.46274 -22.73563,-8.652 -34.39707,-12.03698 -11.46967,-3.50135 -23.35951,-4.97005 -35.09007,-7.28661 -12.25681,-2.57459 -23.94123,-6.12748 -33.636605,-14.23387 -6.680383,-6.90011 -12.808687,-14.27399 -19.976041,-20.7031 -1.580905,-1.24713 -3.017763,-2.67726 -4.861294,-3.52168 0,0 35.93097,-22.95344 35.93097,-22.95344 l 0,0 c 1.60186,1.44562 3.24841,2.84092 4.79999,4.34207 6.76482,6.65049 12.72301,14.04507 19.59357,20.57329 9.3472,7.28814 20.55881,10.49443 32.0795,12.79035 11.95668,2.10902 24.06159,3.57095 35.62436,7.46253 11.62705,3.62864 23.05639,7.89476 34.41233,12.29032 10.3207,3.60915 20.75205,6.80103 31.23898,9.88153 11.15635,3.45463 21.91253,7.87885 32.89645,11.81917 13.23377,3.20891 26.41747,5.30218 40.09943,4.06329 11.82333,-0.30852 24.0259,-0.31115 35.27398,-4.38563 -10.74394,6.35751 -21.54401,12.62109 -32.2318,19.07253 -1.82234,1.10001 4.27215,-1.44017 5.56575,-3.13058 2.23083,-2.91514 1.25217,-7.84155 1.63693,-11.11491 0.28127,-12.35869 0.40078,-24.72432 0.15273,-37.08474 -0.587,-14.80909 -2.32381,-29.51037 -6.54706,-43.7832 -8.72178,-28.86475 -21.41414,-56.12733 -33.60883,-83.65339 -6.79786,-14.7082 -13.74313,-29.43161 -21.37093,-43.73472 -9.0686,-17.00481 -4.68228,-7.17787 -13.05334,-22.96125 -1.95842,-3.69255 -3.7213,-7.48553 -5.58195,-11.2283 -9.30302,-19.87994 -16.40869,-40.68153 -24.64164,-61.01258 0,0 36.98208,-20.36765 36.98208,-20.36765 z"
       inkscape:connector-curvature="0" />
    <path
       style="fill:#800080;fill-opacity:1"
       id="path3037"
       d="m 245.56708,287.56254 c 10.88528,-2.48872 22.03693,-3.30776 33.03402,-5.08884 10.66337,-2.20296 21.49999,-2.77845 32.35122,-3.03974 14.15543,0.31743 28.23061,-1.19113 42.33582,-2.0861 9.64685,-0.68872 19.30317,-1.09409 28.97405,-1.0907 11.76469,0.1237 23.49425,0.45363 35.18548,-1.00087 1.0593,0.31616 2.1186,0.63232 3.17791,0.94849 0,0 -34.74575,24.17269 -34.74575,24.17269 l 0,0 c -0.70073,-0.0495 -1.40147,-0.0989 -2.1022,-0.1484 -11.79251,0.85821 -23.60527,0.41775 -35.41785,0.71848 -9.51595,0.21756 -19.03358,0.44206 -28.53515,1.04637 -14.1397,0.9409 -28.27365,1.92553 -42.4515,2.02459 -10.78033,0.52693 -21.50484,1.54054 -32.13581,3.46691 -11.31659,1.58221 -22.61223,3.2753 -33.90762,4.95204 0,0 34.23738,-24.87492 34.23738,-24.87492 z"
       inkscape:connector-curvature="0"
       transform="translate(0,552.36218)" />
    <path
       style="fill:#800080;fill-opacity:1"
       id="path3039"
       d="m 479.8528,201.84826 c 18.13997,0.11829 35.91549,3.86573 53.167,9.19619 3.6071,1.6563 7.39653,2.96252 10.82129,4.96888 14.12162,8.27304 26.25403,21.68313 34.65034,35.59973 2.31279,3.83337 4.13406,7.94259 6.20109,11.91388 11.37896,25.45519 17.61146,52.66267 22.91759,79.90223 3.62421,21.97381 6.57121,44.09392 8.81203,66.25476 1.70154,13.78367 1.17446,27.72281 2.50563,41.52379 0.29561,2.64369 0.86694,5.23353 1.54693,7.7991 0,0 -37.40456,20.14995 -37.40456,20.14995 l 0,0 c -0.58382,-2.84787 -1.07035,-5.71299 -1.30912,-8.61461 -1.02436,-13.91227 -0.24489,-27.9412 -1.80171,-41.83861 -2.00784,-22.18905 -4.04774,-44.4194 -7.69466,-66.40638 -5.15404,-26.87194 -11.4036,-53.63614 -22.52203,-78.76958 -2.02977,-3.79556 -3.83708,-7.71874 -6.0893,-11.38667 -10.44973,-17.01823 -25.23078,-31.28813 -44.16562,-38.17781 -17.53223,-4.953 -35.56105,-8.30909 -53.87228,-7.23994 0,0 34.23738,-24.87491 34.23738,-24.87491 z"
       inkscape:connector-curvature="0"
       transform="translate(0,552.36218)" />
    <path
       style="fill:#800080;fill-opacity:1"
       id="path3041"
       d="m 565.75927,248.53791 c 10.29886,-11.35086 23.76761,-18.5346 36.6956,-26.35898 45.39559,-27.47471 -17.79698,10.37854 30.20066,-18.30334 44.18457,-28.66048 89.46046,-47.13378 138.93687,-63.29312 29.04693,-9.74527 59.55106,-12.76464 89.52716,-18.07285 10.50142,-1.65125 21.01451,-1.38834 31.5436,-0.42371 0,0 -33.95051,24.19701 -33.95051,24.19701 l 0,0 c -10.06775,-0.91703 -20.12025,-0.85263 -30.14607,0.69553 -29.63402,4.45917 -59.54859,7.89254 -88.06235,17.73281 -23.79094,7.84167 -47.20397,16.18802 -69.99454,26.65526 -6.06188,2.78409 -14.1012,14.05144 -18.03805,8.66639 -3.88419,-5.31301 11.23322,-6.86114 16.84983,-10.29171 -44.86725,26.70619 12.4027,-7.55635 -29.53138,18.06025 -12.17856,7.4396 -25.62917,13.48717 -35.05038,24.59024 0,0 -38.98044,16.14622 -38.98044,16.14622 z"
       inkscape:connector-curvature="0"
       transform="translate(0,552.36218)" />
    <path
       style="fill:#800080;fill-opacity:1"
       id="path3043"
       d="m 1003.8535,191.29634 c -1.3656,0.68031 -2.7304,1.36219 -4.09669,2.04092 -4.42348,2.1974 -17.45094,9.25273 -13.17702,6.77699 8.85396,-5.12883 17.62681,-10.41784 26.71561,-15.11804 3.1088,-1.60769 -5.8369,3.86384 -8.7383,5.82116 -3.0598,2.06419 -6.09673,4.1621 -9.14512,6.24316 -18.36004,12.61576 -37.57156,23.92677 -55.98361,36.45714 -12.53756,8.62702 -24.37743,18.20269 -36.68309,27.1462 -7.66647,5.57154 -15.85643,10.34604 -23.80746,15.48602 0,0 -39.3844,15.99749 -39.3844,15.99749 l 0,0 c 6.6112,-7.22152 17.45525,-9.58348 24.60562,-16.24214 12.59096,-8.83842 24.46329,-18.64362 37.12047,-27.39319 18.34885,-12.80014 37.83804,-23.87029 56.25771,-36.57715 5.87912,-4.04125 11.49221,-8.49188 17.60231,-12.1746 20.24647,-12.20307 40.47567,-24.69967 61.93657,-34.72035 0,0 -33.2226,26.25639 -33.2226,26.25639 z"
       inkscape:connector-curvature="0"
       transform="translate(0,552.36218)" />
    <path
       style="fill:#800080;fill-opacity:1"
       id="path3045"
       d="m 1021.6613,183.24104 c 0.4065,-8.44483 -0.3945,-18.95809 -5.8329,-25.9802 -1.0129,-1.30793 -2.4315,-2.24376 -3.6473,-3.36564 -1.7325,-0.84359 -3.3906,-1.86136 -5.1976,-2.53077 -4.9137,-1.82031 -9.71381,-2.47403 -14.87813,-3.26549 -10.3171,-1.58114 -20.63192,-2.46774 -31.035,-3.24104 -21.02196,-1.6252 -42.05553,-1.28682 -63.06016,0.24936 -14.6434,1.52022 -29.62438,3.05869 -43.506,8.33983 -2.87517,1.09384 -11.00894,5.47146 -8.3629,3.90253 8.94702,-5.30501 18.19534,-10.08457 27.29301,-15.12685 -14.40817,9.88064 -28.47085,20.37115 -40.22735,33.34314 -12.07541,13.9051 -20.73079,29.95681 -27.83247,46.8231 -6.88494,18.11454 -8.71854,33.87383 -7.20023,53.04368 1.43743,19.63476 9.48414,36.71838 21.03891,52.29998 12.1025,13.97717 23.8019,28.47179 36.89389,41.54895 16.66097,15.24165 36.68536,25.97866 55.99557,37.41197 11.81907,7.53533 24.13296,14.22959 37.75443,17.85236 8.75083,2.32737 13.36756,2.73615 22.35311,4.05313 24.8235,2.56463 46.20622,-5.20585 68.51852,-14.86567 3.5722,-1.87158 14.1848,-7.67313 10.7168,-5.61476 -49.9707,29.65911 -21.6666,12.48993 -13.5479,6.19311 9.7655,-7.574 17.8802,-16.62772 26.0419,-25.82451 10.5807,-12.26438 18.4098,-26.41612 24.6431,-41.28365 2.215,-5.18793 1.1491,-2.77558 3.1754,-7.24678 0,0 38.4198,-17.40591 38.4198,-17.40591 l 0,0 c -2.3679,4.43172 -1.1333,2.04011 -3.6726,7.19091 -6.4535,15.37451 -14.4364,30.12038 -25.1627,42.9749 -8.1946,9.36925 -16.3253,18.84194 -25.9731,26.78889 -19.8928,16.38591 -43.4402,27.85495 -66.408,39.31138 -23.22651,9.61522 -44.35977,16.27903 -69.926,13.12038 -9.16385,-1.4727 -13.96485,-1.96233 -22.88369,-4.50454 -13.77712,-3.92701 -26.20608,-10.97357 -38.2095,-18.63453 -19.4808,-11.81939 -39.77814,-22.72901 -56.76013,-38.12587 -13.16568,-13.3023 -25.22967,-27.7673 -37.33707,-42.01924 -11.64171,-16.28865 -20.18858,-34.04339 -22.08649,-54.26309 -0.72662,-7.58828 -1.2907,-10.8795 -1.03328,-18.50725 0.41893,-12.4138 3.66151,-24.51327 7.37826,-36.28712 6.81344,-17.25126 15.38635,-33.58487 27.20462,-48.00639 4.75982,-5.7823 5.87121,-7.6047 11.40808,-12.52741 8.94582,-7.95356 19.02469,-14.69124 28.49196,-21.97885 14.37661,-8.39687 28.56004,-17.13358 43.12982,-25.19062 4.65481,-2.5741 13.11664,-4.80052 18.14673,-5.96665 11.27999,-2.61506 22.77826,-3.9436 34.29429,-4.98233 21.12279,-1.44826 42.25024,-1.49523 63.37005,0.25912 13.83695,1.05498 34.97905,1.77719 47.66305,7.38796 2.0977,0.92791 3.9697,2.2993 5.9546,3.44894 1.4384,1.47997 3.0914,2.7781 4.3153,4.43989 5.8502,7.94326 6.4814,19.03405 7.6237,28.41355 0,0 -38.0444,18.3481 -38.0444,18.3481 z"
       inkscape:connector-curvature="0"
       transform="translate(0,552.36218)" />
    <path
       style="fill:#800080;fill-opacity:1"
       id="path3047"
       d="m 1014.889,65.258313 c 20.3546,1.400917 40.6194,3.770502 60.9319,5.66369 17.0942,2.157596 34.4246,3.441142 51.2633,7.283027 11.4303,2.607926 14.3614,4.02874 25.1977,7.94146 22.1902,9.577093 38.6075,27.2915 52.7394,46.34178 12.2429,18.61995 18.1105,40.0464 20.3346,61.99777 1.1239,18.25615 -1.3262,36.40487 -4.6657,54.30143 -2.601,11.89623 -3.8977,23.99683 -5.4031,36.06284 0.3897,2.98553 -3.4522,14.69407 -0.9537,16.59049 2.7182,2.06328 6.3852,2.41721 9.6268,3.48404 18.3759,5.72823 37.4359,7.45416 56.5756,6.83153 7.2556,-0.73508 12.573,-0.90313 19.5751,-3.04079 2.8517,-0.87058 10.8349,-4.9252 8.2743,-3.39774 -54.1475,32.30012 -30.538,19.478 -23.1086,9.96651 1.5706,-2.01083 2.6619,-4.35381 3.9929,-6.53071 7.9184,-19.66839 7.3365,-41.60513 7.1127,-62.47334 -0.9914,-23.24258 -6.2687,-45.97493 -9.4506,-68.95674 -1.9674,-14.05522 -5.3545,-27.85483 -8.1787,-41.75107 -4.4943,-20.43614 -8.9158,-9.57768 35.0047,-26.13694 1.2782,-0.48194 -0.4091,2.7035 -0.521,4.06499 -0.1409,1.71462 -0.1578,3.43717 -0.2367,5.15576 -0.7732,19.62467 -0.6517,39.24278 0.022,58.86565 1.0857,26.69043 2.9226,53.33526 3.854,80.03549 1.4885,27.45521 6.1974,54.65112 12.8324,81.29878 3.4737,15.76588 10.1114,30.48727 15.4031,45.64824 1.9263,5.89306 3.3656,11.82327 6.2342,17.34229 5.4813,11.49325 13.4858,21.54583 21.3401,31.49023 4.4353,5.00553 9.4159,9.47189 13.8669,14.45673 2.4094,2.45109 4.2408,4.96495 4.9726,8.35158 0,0 -37.8461,19.62679 -37.8461,19.62679 l 0,0 c 0.6011,-2.54955 -2.1024,-4.229 -3.4493,-6.0766 -4.3175,-5.15409 -9.3486,-9.6772 -13.4605,-15.01414 -7.6049,-10.41259 -15.4733,-20.67529 -22.0634,-31.77638 -3.2867,-5.67115 -4.497,-11.95854 -6.4676,-18.1611 -4.4742,-15.64059 -10.2794,-30.90436 -13.7662,-46.83157 -6.7664,-26.90643 -11.8322,-54.24276 -13.2976,-82.00469 -0.9573,-26.66019 -2.8153,-53.26123 -4.0801,-79.90459 -0.836,-19.47417 -1.438,-38.94752 -1.423,-58.44284 0.01,-1.72247 0.032,-3.445 0.018,-5.16743 -0.012,-1.44054 -1.2816,-3.50254 -0.096,-4.32072 38.9472,-26.87501 36.0668,-34.332384 39.8882,-12.10307 2.5638,14.08623 6.161,27.98845 7.8294,42.23103 2.7353,23.27633 7.1397,46.33781 8.9624,69.71853 0.4688,21.3024 1.4308,43.47853 -5.3098,63.95918 -1.2151,2.45089 -2.1852,5.03932 -3.6452,7.35267 -10.3253,16.35985 -31.5707,22.81416 -47.3101,31.39571 -2.6354,1.43686 -5.6481,2.07205 -8.5654,2.77876 -7.2741,1.76221 -12.4138,1.84038 -19.875,2.4094 -19.6303,0.18667 -39.1176,-1.84952 -57.969,-7.62402 -4.1934,-1.49838 -8.7883,-2.47863 -11.9902,-5.93719 -4.3683,-4.71834 0.5781,-13.32814 0.3595,-18.95664 1.4648,-12.21724 2.4555,-24.5356 5.5778,-36.47918 3.6048,-17.58028 6.4455,-35.35826 5.4198,-53.38755 -1.5669,-21.35214 -6.8536,-42.22394 -18.8368,-60.26501 -13.6338,-18.46932 -29.8184,-35.28103 -51.3089,-44.42379 -10.9461,-3.89138 -13.029,-5.01738 -24.6302,-7.51618 -16.9236,-3.645155 -34.2883,-4.695678 -51.4356,-6.759795 -20.7128,-2.05466 -41.407,-4.322885 -62.23705,-4.753947 0,0 34.37135,-24.452615 34.37135,-24.452615 z"
       inkscape:connector-curvature="0"
       transform="translate(0,552.36218)" />
    <path
       style="fill:#800080;fill-opacity:1"
       id="path3049"
       d="m 1434.8302,69.173011 c 21.7146,5.750572 44.1796,7.379922 66.5063,8.822627 20.8172,1.206844 41.8609,1.325585 62.387,-2.71006 11.7715,-4.281155 22.3926,-11.029561 33.1957,-17.249382 5.1499,-2.802018 10.3236,-5.543732 15.5109,-8.271994 1.3953,-0.733841 5.5152,-3.056757 4.1497,-2.268856 -35.9082,20.719613 -43.4708,25.558076 -30.8227,17.539416 14.9684,-9.35218 -46.7876,12.180343 40.2785,-18.11247 1.1293,-0.392911 -0.1752,2.385348 -0.2248,3.58 -0.314,7.55054 -0.1598,6.768818 0.067,15.65387 0.4393,4.633331 0.7871,9.276262 1.318,13.899994 2.0579,17.921533 4.9593,35.737814 6.9107,53.674904 1.4265,13.11296 2.2823,24.68782 3.3517,37.81334 2.2105,41.28124 3.3226,82.62345 4.3764,123.94983 0.535,28.73675 1.0267,57.74828 -4.3557,86.12034 -3.179,16.75728 -5.2405,21.71557 -10.2857,37.76794 -7.834,20.30147 -18.8216,39.51023 -35.2299,54.12942 -14.2233,12.67248 -44.9031,27.73982 -54.7441,33.39813 -18.5017,7.02592 -33.359,5.63901 -51.145,-3.08995 -3.3827,-1.66017 -6.4881,-3.83412 -9.7322,-5.75118 -9.3722,-5.91853 -17.6837,-13.26902 -25.724,-20.84708 -3.3288,-3.13742 -11.2704,-10.83668 -14.1954,-14.43661 -2.3473,-2.88892 -4.3141,-6.06723 -6.4712,-9.10084 -10.6011,-18.59722 -18.534,-38.53315 -28.2413,-57.59604 -6.119,-13.4118 -9.5574,-27.83328 -15.3681,-41.34975 -9.2358,-18.51551 13.6437,-16.74131 35.2726,-29.31629 0,0 -33.7858,26.07247 -33.7858,26.07247 l 0,0 c 11.8671,-7.06645 23.9151,-13.8376 35.6013,-21.19934 0.3834,-0.24149 -0.8756,-0.58233 -1.2954,-0.4117 -1.3917,0.56575 0.5131,5.35447 0.6022,4.46652 5.474,13.60325 8.7905,27.96197 14.7451,41.39296 9.144,19.08597 16.7459,38.96178 27.5094,57.21602 2.1259,2.85464 4.1004,5.82847 6.3776,8.56394 11.0872,13.31855 24.8303,24.68631 39.0917,34.3724 3.1314,1.73513 6.1349,3.72427 9.3941,5.20538 16.6267,7.5559 32.3975,7.91633 48.9901,0.32409 -8.1855,4.90043 -16.1298,10.22822 -24.5564,14.70128 -3.7979,2.01602 7.2942,-4.59446 10.6293,-7.3084 17.0312,-13.85924 28.6467,-32.67639 36.888,-52.78003 5.5393,-16.58829 7.2005,-19.95096 10.7747,-37.32091 5.7938,-28.15691 5.8014,-56.98615 4.8625,-85.5941 -0.9495,-41.19351 -2.4743,-82.37309 -4.7699,-123.51406 -2.586,-35.09947 -6.8311,-69.99283 -13.202,-104.620726 -0.4101,-4.195282 -1.1513,-10.914231 -1.35,-15.471749 -0.043,-0.984426 -0.8204,-2.470408 0.037,-2.955849 75.1628,-42.551309 45.4031,-28.808131 37.0166,-16.991995 -18.8585,13.66915 -40.3131,23.15999 -60.5183,34.586299 -10.8944,6.268385 -21.7471,13.212116 -34.1262,16.1081 -20.4655,2.90333 -41.23,2.37293 -61.8123,1.09663 -23.0617,-1.628724 -46.2215,-3.352421 -68.825,-8.48198 0,0 34.9372,-23.704559 34.9372,-23.704559 z"
       inkscape:connector-curvature="0"
       transform="translate(0,552.36218)" />
    <path
       style="fill:#800080;fill-opacity:1"
       id="path3051"
       d="m 1111.596,441.868 c 18.8323,3.82015 38.1642,4.484 57.3122,5.31641 23.8649,1.20353 47.7757,0.26246 71.6393,1.22653 21.3368,0.81221 42.6301,2.29542 63.9409,3.57722 17.3378,0.96693 34.7004,1.38838 52.063,1.49871 9.2666,0.0487 4.7279,0.0408 13.6159,0.0276 0,0 -33.6532,24.42617 -33.6532,24.42617 l 0,0 c -8.7941,-0.0971 -4.2908,-0.0477 -13.5098,-0.14827 -17.2079,-0.34899 -34.41,-0.87612 -51.5832,-2.08602 -21.3399,-1.32128 -42.6743,-2.60258 -64.0429,-3.38616 -23.7185,-0.82172 -47.4637,-0.69048 -71.1826,-1.57578 -19.6386,-0.78012 -39.2331,-2.01189 -58.7827,-4.04095 0,0 34.1831,-24.83543 34.1831,-24.83543 z"
       inkscape:connector-curvature="0"
       transform="translate(0,552.36218)" />
    <path
       style="fill:#800080;fill-opacity:1"
       id="path3053"
       d="m 872.42635,276.23153 c -4.60776,5.73454 -8.92436,11.76797 -14.55608,16.54965 -4.35414,3.10922 -8.8501,5.99902 -13.42313,8.7733 -3.8425,2.03559 -6.92946,4.97792 -10.14453,7.83539 -12.35949,11.99674 -28.63094,19.82123 -45.0613,24.76579 0,0 33.53657,-25.98144 33.53657,-25.98144 l 0,0 c 1.44019,-0.48444 5.59512,-2.3227 4.28696,-1.54969 -52.92199,31.27254 -44.53081,25.65824 -32.15518,18.73476 3.4284,-2.85044 6.25919,-6.18568 10.08146,-8.47854 4.50886,-2.96419 9.15091,-5.55951 13.61067,-8.54979 6.15312,-3.77174 10.78804,-9.5019 14.80918,-15.43057 0,0 39.01538,-16.66886 39.01538,-16.66886 z"
       inkscape:connector-curvature="0"
       transform="translate(0,552.36218)" />
    <path
       style="fill:#800080;fill-opacity:1"
       id="path3055"
       d="m 1703.08,186.50634 c -6.9147,-11.42885 -9.8812,-24.70925 -9.9408,-37.94659 0.4961,-2.14114 0.7099,-4.36802 1.4883,-6.42342 1.2152,-3.20866 4.7999,-8.96187 7.7829,-10.84567 29.5494,-18.66138 34.7084,-23.62618 60.8097,-29.79764 21.5233,-4.520905 43.456,-6.097804 65.3788,-7.015029 20.9571,-0.844284 41.9415,-1.421708 62.7742,1.301289 18.2426,2.264006 33.9749,7.6411 50.2471,15.91328 12.8196,8.0001 17.5672,21.29727 20.5173,35.38622 2.4728,16.51835 2.063,33.28468 2.0555,49.93692 0.4543,17.6532 0.069,35.13156 -2.4755,52.61025 -1.8918,16.10296 -5.479,32.3711 -4.9304,48.67971 0.1066,3.16778 0.6195,6.30879 0.9293,9.46319 3.4057,14.29291 8.7226,29.78577 19.4086,40.4736 2.0049,2.00532 4.437,3.53234 6.6555,5.29852 18.3967,10.62923 38.0299,10.10475 58.3215,6.80964 3.4338,-0.92583 6.9729,-1.5247 10.3014,-2.77749 3.4231,-1.28841 13.0118,-6.66965 9.8614,-4.81153 -8.3439,4.92123 -16.5834,10.13333 -25.4601,14.01169 -3.4729,1.51738 6.1069,-4.49311 9.0732,-6.85204 3.7529,-2.98441 13.1507,-11.09352 16.9015,-14.30781 8.794,-8.3164 18.9341,-15.42244 26.8268,-24.66424 1.7154,-2.66485 1.0103,-1.34038 2.1782,-3.93919 0,0 38.4472,-17.9214 38.4472,-17.9214 l 0,0 c -0.9935,3.31181 -0.3947,1.59243 -1.8482,5.1398 -7.0262,10.63984 -19.0632,17.08035 -27.8517,26.09106 -5.6572,4.8275 -11.2353,9.74843 -16.9439,14.51509 -2.9267,2.44379 -5.6508,5.18458 -8.8852,7.20368 -14.5265,9.06843 -29.3281,17.70375 -44.3075,26.00283 -7.7195,4.27684 -12.4934,4.77872 -20.9108,6.73182 -21.6869,2.76792 -41.361,2.49714 -60.5393,-9.41772 -2.3782,-2.01632 -4.9763,-3.79883 -7.1346,-6.04897 -10.9764,-11.44333 -16.6197,-27.54595 -20.3632,-42.55185 -0.405,-3.3163 -1.0485,-6.61211 -1.215,-9.9489 -0.8185,-16.4045 3.0199,-32.85034 4.6649,-49.07264 2.428,-17.29732 3.2417,-34.61585 2.749,-52.08927 -0.052,-16.33613 0.1036,-32.76902 -2.0938,-48.98923 -2.5485,-12.93055 -6.5532,-25.10775 -18.5194,-32.23504 -4.9479,-2.50897 -8.5482,-4.4746 -13.7485,-6.52431 -11.3251,-4.46384 -23.3445,-6.52131 -35.3061,-8.45152 -20.6306,-2.20465 -41.3606,-1.86784 -62.071,-0.97736 -21.8627,1.14748 -43.7555,2.88077 -65.133,7.88503 -3.2369,0.91853 -6.5271,1.66683 -9.7109,2.75557 -2.9098,0.99506 -11.0731,5.23219 -8.5416,3.48622 62.6404,-43.202781 24.5237,-16.89449 19.7341,-8.28151 -0.9476,1.704 -1.3624,3.65376 -2.0436,5.48064 -0.1261,2.11657 -0.461,4.23101 -0.3782,6.34971 0.3844,9.8317 3.7728,20.19066 9.3826,28.22001 0,0 -36.1367,22.1446 -36.1367,22.1446 z"
       inkscape:connector-curvature="0"
       transform="translate(0,552.36218)" />
    <path
       style="fill:#800080;fill-opacity:1"
       id="path3057"
       d="m 1906.0417,272.77358 c -10.6757,-10.80313 -25.0708,-15.20232 -39.4242,-18.66663 -24.5194,-4.34628 -49.563,-5.19826 -74.4152,-4.73942 -15.5308,0.14002 -30.3082,4.40346 -44.275,10.98585 -3.3513,1.57946 -13.0288,7.05252 -9.849,5.15112 8.653,-5.1742 17.5191,-9.9836 26.2786,-14.9754 -17.5177,9.6722 -24.9707,22.72546 -32.8707,40.3708 -6.8612,15.93646 -10.2418,32.68886 -12.0431,49.84101 -0.5747,12.80247 -0.464,25.93968 3.0686,38.37463 1.9246,6.77502 3.8938,10.60792 6.7353,17.0127 10.9006,21.01538 24.5743,29.38519 46.2359,37.11857 20.5914,6.127 41.9927,6.01799 63.2124,4.73362 14.8564,-1.31675 29.7467,-3.3424 43.619,-9.10008 8.4807,-3.51991 11.7248,-5.71669 19.6433,-10.26329 -8.4154,4.78404 -16.7416,9.72867 -25.2463,14.35212 -3.347,1.81957 6.5111,-3.95741 9.7663,-5.93665 11.4327,-6.95145 22.5942,-14.06525 33.4039,-21.95555 9.1926,-6.94838 17.2301,-15.38141 22.378,-25.74561 1.0733,-2.79831 0.6337,-1.48216 1.3661,-3.93231 0,0 38.34,-18.29272 38.34,-18.29272 l 0,0 c -0.7021,2.92549 -0.2745,1.36391 -1.3322,4.67087 -4.6276,11.33271 -13.241,20.49436 -22.607,28.15731 -27.5416,20.67992 -58.25,36.60035 -87.7358,54.23445 -8.1338,4.3495 -11.4043,6.44464 -20.1207,9.69342 -14.1656,5.27984 -29.2752,6.91879 -44.2313,8.19528 -21.647,1.08974 -43.4479,0.77286 -64.2792,-6.03806 -3.3448,-1.30342 -6.7688,-2.41958 -10.0346,-3.91026 -16.5025,-7.53278 -29.855,-19.63036 -38.1307,-35.84313 -2.5853,-5.83738 -5.3521,-11.57328 -7.1519,-17.72823 -3.734,-12.77 -3.7229,-26.35464 -3.5567,-39.52214 1.2499,-17.60767 4.5249,-34.66024 11.441,-51.01701 7.3886,-17.51502 14.6925,-33.03088 31.9712,-42.80041 23.309,-13.41295 48.3466,-31.35873 75.6943,-37.29451 9.427,-2.04612 13.3887,-1.85181 22.9981,-2.33976 25.1582,-0.0818 50.5075,0.78539 75.2966,5.37515 15.1181,3.82309 29.7712,8.91383 41.7825,19.26729 0,0 -35.9275,22.56698 -35.9275,22.56698 z"
       inkscape:connector-curvature="0"
       transform="translate(0,552.36218)" />
    <path
       style="fill:#ff8080;fill-opacity:1"
       d="m 804.9974,299.85714 c -5.47159,-15.50959 -6.87289,-43.09713 -3.02813,-59.61538 7.85409,-33.74359 42.32411,-80.68277 65.20478,-88.79191 14.17318,-5.02312 116.98786,-4.99446 134.06305,0.0374 12.0804,3.55994 19.6025,11.97008 16.9315,18.93054 -0.7778,2.02703 -9.7507,8.3475 -19.93959,14.04548 -18.23021,10.19491 -90.19881,57.66824 -134.6096,88.79381 -12.46647,8.7372 -23.90802,15.88582 -25.42566,15.88582 -1.51765,0 -7.1297,4.5 -12.47123,10 -12.06094,12.41875 -16.54145,12.57317 -20.72512,0.71428 l 0,0 z"
       id="path3059"
       inkscape:connector-curvature="0"
       transform="translate(0,552.36218)" />
    <path
       style="fill:#ff8080;fill-opacity:1"
       d="m 1788.0907,434.83249 c -30.6778,-6.51343 -53.1831,-25.44582 -62.0765,-52.22131 -10.4096,-31.34029 0.2302,-89.28011 20.8099,-113.32297 13.3759,-15.62666 26.3221,-18.43019 75.9623,-16.44976 42.1263,1.68066 61.6149,5.8075 76.0858,16.11169 7.0876,5.04678 8.6478,5.23425 13.4306,1.61372 2.9763,-2.25303 6.4163,-4.1373 7.6445,-4.18728 1.2282,-0.05 1.4121,13.08771 0.4087,29.19485 -1.6158,25.93851 -1.1068,31.17946 4.4534,45.85469 3.4527,9.11293 9.2379,20.01046 12.856,24.21673 l 6.5783,7.64775 -8.4091,12.22221 c -9.9749,14.498 -45.5553,39.38453 -64.6815,45.24114 -16.8471,5.1587 -66.4934,7.59644 -83.0624,4.07854 z"
       id="path3061"
       inkscape:connector-curvature="0"
       transform="translate(0,552.36218)" />
  </g>
</svg>
